<svg xmlns="http://www.w3.org/2000/svg" xmlns:xlink="http://www.w3.org/1999/xlink" style="isolation:isolate" width="64pt" height="64pt" viewBox="0 0 64 64"><defs><clipPath id="_clipPath_yFVWtIgIgtvDF7PUwuMrR4vpyfpvUwDI"><rect width="64" height="64"/></clipPath></defs><g clip-path="url(#_clipPath_yFVWtIgIgtvDF7PUwuMrR4vpyfpvUwDI)"><g><path fill="#D3D3D3" d="M 19 3.5 C 18.704 3.5 18.426 3.558 18.156 3.637 C 18.429 3.571 18.7 3.5 19 3.5 Z M 16 10.4 L 16 38.5 C 16 40.162 17.338 41.5 19 41.5 L 57 41.5 C 58.662 41.5 60 40.162 60 38.5 L 60 10.4 L 16 10.4 Z"/><g opacity=".2"><path fill="#000" d="M 16 38.5 L 16 39.5 C 16 41.162 17.338 42.5 19 42.5 L 57 42.5 C 58.662 42.5 60 41.162 60 39.5 L 60 38.5 C 60 40.162 58.662 41.5 57 41.5 L 19 41.5 C 17.338 41.5 16 40.162 16 38.5 Z"/></g><path fill="#E4E4E4" d="M 4 28.4 L 4 56.5 C 4 58.162 5.338 59.5 7 59.5 L 45 59.5 C 46.662 59.5 48 58.162 48 56.5 L 48 28.4 L 4 28.4 Z"/><path fill="#03A9F4" d="M 7 22.5 C 5.338 22.5 4 23.838 4 25.5 L 4 29.5 L 48 29.5 L 48 25.5 C 48 23.838 46.662 22.5 45 22.5 L 7 22.5 Z"/><path fill="#2EDE7A" d="M 19 4.5 C 17.338 4.5 16 5.5 16 7.5 L 16 11.5 L 60 11.5 L 60 7.5 C 60 5.838 58.662 4.5 57 4.5 L 19 4.5 Z"/><g opacity=".1"><path fill="#FFF" d="M 19 4.5 C 17.338 4.5 16 5.838 16 7.5 L 16 8.5 C 16 6.838 17.338 5.5 19 5.5 L 57 5.5 C 58.662 5.5 60 6.838 60 8.5 L 60 7.5 C 60 5.838 58.662 4.5 57 4.5 L 19 4.5 Z"/></g><g opacity=".2"><path fill="#000" d="M 4 56.5 L 4 57.5 C 4 59.162 5.338 60.5 7 60.5 L 45 60.5 C 46.662 60.5 48 59.162 48 57.5 L 48 56.5 C 48 58.162 46.662 59.5 45 59.5 L 7 59.5 C 5.338 59.5 4 58.162 4 56.5 Z"/></g></g></g></svg>