<svg xmlns="http://www.w3.org/2000/svg" xmlns:svg="http://www.w3.org/2000/svg" id="svg26" width="64" height="64" version="1"><metadata id="metadata32"/><rect style="fill:#ffb300;fill-opacity:1" id="rect2" width="48" height="34" x="8" y="3" rx="2.5" ry="2.5"/><rect style="opacity:.1" id="rect4" width="48" height="34" x="8" y="8" rx="2.5" ry="2.5"/><rect style="fill:#ff5722;fill-opacity:1" id="rect6" width="48" height="34" x="8" y="9" rx="2.5" ry="2.5"/><rect style="opacity:.1" id="rect8" width="48" height="34" x="8" y="14" rx="2.5" ry="2.5"/><rect style="fill:#d32f2f;fill-opacity:1" id="rect10" width="48" height="34" x="8" y="15" rx="2.5" ry="2.5"/><rect style="opacity:.2" id="rect12" width="56" height="40" x="4" y="22" rx="3" ry="3"/><rect style="fill:#8e8e8e" id="rect14" width="56" height="40" x="4" y="21" rx="3" ry="3"/><rect style="opacity:.2" id="rect16" width="20" height="6" x="22" y="38" rx="2" ry="2"/><rect style="fill:#ececec" id="rect18" width="20" height="6" x="22" y="37" rx="2" ry="2"/><path style="fill:#fff;opacity:.1" id="path20" d="M 10.5 3 C 9.115 3 8 4.115 8 5.5 L 8 6.5 C 8 5.115 9.115 4 10.5 4 L 53.5 4 C 54.885 4 56 5.115 56 6.5 L 56 5.5 C 56 4.115 54.885 3 53.5 3 L 10.5 3 z"/><path style="fill:#fff;opacity:.1" id="path22" d="M 10.5,9 C 9.115,9 8,10.115 8,11.5 V 12.5 C 8,11.115 9.115,10 10.5,10 H 53.5 C 54.885,10 56,11.115 56,12.5 V 11.5 C 56,10.115 54.885,9 53.5,9 Z"/><path style="fill:#fff;opacity:.1" id="path24" d="M 10.5,15 C 9.115,15 8,16.115 8,17.5 V 18.5 C 8,17.115 9.115,16 10.5,16 H 53.5 C 54.885,16 56,17.115 56,18.5 V 17.5 C 56,16.115 54.885,15 53.5,15 Z"/></svg>