<svg xmlns="http://www.w3.org/2000/svg" xmlns:xlink="http://www.w3.org/1999/xlink" style="isolation:isolate" width="64pt" height="64pt" viewBox="0 0 64 64"><defs><clipPath id="_clipPath_rSUX7obnCXry9u9MV1FUN4uOmWdxEAAc"><rect width="64" height="64"/></clipPath></defs><g clip-path="url(#_clipPath_rSUX7obnCXry9u9MV1FUN4uOmWdxEAAc)"><g><g opacity=".2"><path fill="#000" d="M 32 3 C 16.551 3 4 15.551 4 31 C 4 46.449 16.551 59 32 59 C 47.449 59 60 46.449 60 31 C 60 15.551 47.449 3 32 3 Z"/></g><path fill="#4F4F4F" d="M 32 2 C 16.551 2 4 14.551 4 30 C 4 45.449 16.551 58 32 58 C 47.449 58 60 45.449 60 30 C 60 14.551 47.449 2 32 2 Z"/><g opacity=".1"><path fill="#FFF" d="M 32 2 C 16.551 2 4 14.551 4 30 C 4 30.113 4.011 30.224 4.018 30.336 C 4.372 15.194 16.773 3 32 3 C 47.227 3 59.628 15.194 59.982 30.336 C 59.989 30.224 60 30.113 60 30 C 60 14.551 47.449 2 32 2 Z"/></g><g opacity=".2"><path fill="#000" d="M 32 9 C 19.861 9 10 18.861 10 31 C 10 43.139 19.861 53 32 53 C 44.139 53 54 43.139 54 31 C 54 18.861 44.139 9 32 9 Z"/></g><path fill="#42A5F5" d="M 32 8 C 19.861 8 10 17.861 10 30 C 10 42.139 19.861 52 32 52 C 44.139 52 54 42.139 54 30 C 54 17.861 44.139 8 32 8 Z"/><g opacity=".1"><path fill="#FFF" d="M 32 8 C 19.861 8 10 17.861 10 30 C 10 30.114 10.012 30.225 10.018 30.338 C 10.369 18.505 20.083 9 32 9 C 43.917 9 53.631 18.505 53.982 30.338 C 53.988 30.225 54 30.114 54 30 C 54 17.861 44.139 8 32 8 Z"/></g><g opacity=".2"><mask id="_mask_hR3g5YtrvwvqIZ3pM9DFPuHCMrNr9Ec3" width="400%" height="400%" x="-200%" y="-200%"><rect width="400%" height="400%" x="-200%" y="-200%" style="fill:#fff"/><line x1="32" x2="55" y1="31" y2="8" fill="#000" stroke="none"/></mask><line x1="32" x2="55" y1="31" y2="8" stroke="#000" stroke-linecap="round" stroke-linejoin="round" stroke-miterlimit="4" stroke-width="4" mask="url(#_mask_hR3g5YtrvwvqIZ3pM9DFPuHCMrNr9Ec3)" vector-effect="non-scaling-stroke"/></g><mask id="_mask_Ity13bu25HV9uMcbMgKh1uMti8WqNENB" width="400%" height="400%" x="-200%" y="-200%"><rect width="400%" height="400%" x="-200%" y="-200%" style="fill:#fff"/><line x1="32" x2="55" y1="30" y2="7" fill="#000" stroke="none"/></mask><line x1="32" x2="55" y1="30" y2="7" stroke="#E4E4E4" stroke-linecap="round" stroke-linejoin="round" stroke-miterlimit="4" stroke-width="4" mask="url(#_mask_Ity13bu25HV9uMcbMgKh1uMti8WqNENB)" vector-effect="non-scaling-stroke"/><g opacity=".2"><mask id="_mask_nDcEjy2KBLqnA9LSmEUeMbOY44um1F42" width="400%" height="400%" x="-200%" y="-200%"><rect width="400%" height="400%" x="-200%" y="-200%" style="fill:#fff"/><line x1="19" x2="32" y1="22" y2="31" fill="#000" stroke="none"/></mask><line x1="19" x2="32" y1="22" y2="31" stroke="#000" stroke-linecap="round" stroke-linejoin="round" stroke-miterlimit="4" stroke-width="4" mask="url(#_mask_nDcEjy2KBLqnA9LSmEUeMbOY44um1F42)" vector-effect="non-scaling-stroke"/></g><mask id="_mask_Ukgc8kXdmwcX176pmB7JcsA1ufQE1jWm" width="400%" height="400%" x="-200%" y="-200%"><rect width="400%" height="400%" x="-200%" y="-200%" style="fill:#fff"/><line x1="19" x2="32" y1="21" y2="30" fill="#000" stroke="none"/></mask><line x1="19" x2="32" y1="21" y2="30" stroke="#E4E4E4" stroke-linecap="round" stroke-linejoin="round" stroke-miterlimit="4" stroke-width="4" mask="url(#_mask_Ukgc8kXdmwcX176pmB7JcsA1ufQE1jWm)" vector-effect="non-scaling-stroke"/><g opacity=".2"><path fill="#000" d="M 32 25 C 28.689 25 26 27.689 26 31 C 26 34.311 28.689 37 32 37 C 35.311 37 38 34.311 38 31 C 38 27.689 35.311 25 32 25 Z"/></g><path fill="#4F4F4F" d="M 32 24 C 28.689 24 26 26.689 26 30 C 26 33.311 28.689 36 32 36 C 35.311 36 38 33.311 38 30 C 38 26.689 35.311 24 32 24 Z"/></g></g></svg>