<svg xmlns="http://www.w3.org/2000/svg" xmlns:xlink="http://www.w3.org/1999/xlink" style="isolation:isolate" width="64pt" height="64pt" viewBox="0 0 64 64"><defs><clipPath id="_clipPath_TMuE11Li1qSJBwpqiYqTeYvTriFPiLCt"><rect width="64" height="64"/></clipPath></defs><g clip-path="url(#_clipPath_TMuE11Li1qSJBwpqiYqTeYvTriFPiLCt)"><g><g opacity=".2"><path fill="#000" d="M 12.778 14 C 11.239 14 10 15.226 10 16.75 L 10 49.25 C 10 50.774 11.239 52 12.778 52 L 38 52 L 43 58 L 48 52 L 57.224 52 C 58.762 52 60 50.774 60 49.25 L 60 16.75 C 59.998 15.226 58.76 14 57.22 14 L 12.778 14 Z"/></g><path fill="#4F4F4F" d="M 12.778 13 C 11.239 13 10 14.226 10 15.75 L 10 48.25 C 10 49.774 11.239 51 12.778 51 L 38 51 L 43 57 L 48 51 L 57.224 51 C 58.762 51 60 49.774 60 48.25 L 60 15.75 C 59.998 14.226 58.76 13 57.22 13 L 12.778 13 Z"/><g opacity=".1"><path fill="#FFF" d="M 12.777 13 C 11.238 13 10 14.227 10 15.75 L 10 16.75 C 10 15.227 11.238 14 12.777 14 L 57.223 14 C 58.763 14 60 15.227 60 16.75 L 60 15.75 C 60 14.227 58.763 13 57.223 13 L 12.777 13 Z"/></g><g opacity=".2"><circle cx="19.5" cy="22.5" r="15.5" fill="#000" vector-effect="non-scaling-stroke"/></g><circle cx="19.5" cy="21.5" r="15.5" fill="#FF5722" vector-effect="non-scaling-stroke"/><path fill="#FFF" d="M 21 30 L 21 17 L 18 17 L 18 30 L 21 30 Z M 21 15 L 21 12 L 18 12 L 18 15 L 21 15 Z"/></g></g></svg>